<svg width="13" height="7" viewBox="0 0 13 7" fill="none" xmlns="http://www.w3.org/2000/svg">
<path d="M5.7832 0.220703C5.90039 0.115234 6.03516 0.0625 6.1875 0.0625C6.33984 0.0625 6.47461 0.115234 6.5918 0.220703L12.2168 5.8457C12.3223 5.96289 12.375 6.09766 12.375 6.25C12.375 6.40234 12.3223 6.53711 12.2168 6.6543C12.0996 6.75977 11.9648 6.8125 11.8125 6.8125C11.6602 6.8125 11.5254 6.75977 11.4082 6.6543L6.1875 1.41602L0.966797 6.6543C0.849609 6.75977 0.714844 6.8125 0.5625 6.8125C0.410156 6.8125 0.275391 6.75977 0.158203 6.6543C0.0527344 6.53711 0 6.40234 0 6.25C0 6.09766 0.0527344 5.96289 0.158203 5.8457L5.7832 0.220703Z" fill="white"/>
</svg>
