<svg width="435" height="181" viewBox="0 0 435 181" fill="none" xmlns="http://www.w3.org/2000/svg">
<path d="M413.908 4.02802C413.097 -1.30671 406.758 -1.09094 406.468 3.19471C405.486 16.3865 396.386 33.0305 384.578 41.4753C384.52 41.5182 384.473 41.5742 384.44 41.6388C384.407 41.7035 384.39 41.7749 384.39 41.8474C384.39 41.9198 384.407 41.9913 384.44 42.0559C384.473 42.1205 384.52 42.1765 384.578 42.2194C384.763 42.3739 384.979 42.487 385.212 42.5512C385.444 42.6153 385.687 42.6291 385.925 42.5914C393.313 41.4084 406.996 32.6064 407.443 25.6869C401.252 121.072 329.431 145.782 245.704 143.52C202.595 143.587 159.984 133.26 116.912 132.776C74.6504 133.193 27.7985 144.681 0.179882 178.824C0.100368 178.917 0.044802 179.027 0.0180781 179.146C-0.00864575 179.265 -0.00569938 179.389 0.0266383 179.507C0.058976 179.624 0.119731 179.732 0.203542 179.821C0.287353 179.909 0.391643 179.976 0.50726 180.015C0.707833 180.091 0.926962 180.103 1.1347 180.05C1.34244 179.996 1.52865 179.88 1.66795 179.717C29.7776 147.009 75.2754 136.89 116.822 137.635C159.976 139.294 202 151.027 245.362 151.935C333.627 157.694 413.068 130.358 411.758 26.9369C411.803 29.9576 424.05 42.9783 433.826 43.4024C434.106 43.4145 434.381 43.3223 434.596 43.1436C434.812 42.9649 434.954 42.7124 434.994 42.4351V42.3979C435.016 42.2396 434.975 42.079 434.881 41.9499C434.787 41.8209 434.646 41.7334 434.488 41.706C423.707 39.4962 415.523 14.7645 413.908 4.02802Z" fill="#231F20"/>
<path d="M99.5855 110.101C134.749 111.455 186.853 106.916 217.344 90.1901C217.44 90.1563 217.546 90.156 217.642 90.1893C217.739 90.2227 217.821 90.2877 217.876 90.3738C217.931 90.4599 217.956 90.562 217.946 90.6637C217.936 90.7654 217.891 90.8607 217.82 90.9342C188.557 111.358 134.897 116.157 99.5185 110.964C99.4243 110.932 99.3434 110.87 99.2886 110.787C99.2338 110.704 99.2082 110.605 99.2159 110.506C99.2236 110.407 99.2641 110.313 99.331 110.24C99.398 110.166 99.4875 110.117 99.5855 110.101Z" fill="#231F20"/>
<path d="M89.5852 107.757C89.7145 107.834 89.8173 107.948 89.8801 108.085C89.9429 108.222 89.9627 108.375 89.9369 108.523C89.9111 108.671 89.841 108.808 89.7357 108.916C89.6304 109.024 89.4949 109.097 89.3471 109.126C88.9156 109.126 88.4766 109.126 88.0451 109.081C86.6157 108.991 85.1924 108.822 83.7817 108.575C82.3701 108.329 80.9739 108.001 79.6003 107.593C79.1762 107.466 78.7595 107.333 78.3428 107.191C78.2109 107.115 78.1054 107 78.0408 106.862C77.9762 106.724 77.9554 106.57 77.9814 106.42C78.0074 106.27 78.0788 106.131 78.186 106.023C78.2932 105.915 78.4311 105.842 78.5809 105.815C79.0274 105.815 79.4663 105.815 79.9053 105.867C82.7672 106.044 85.6 106.543 88.3501 107.355C88.7966 107.474 89.2058 107.615 89.5852 107.757Z" fill="#231F20"/>
</svg>
