<svg width="14" height="13" viewBox="0 0 14 13" fill="none" xmlns="http://www.w3.org/2000/svg">
<path d="M0 6.47998C0 6.32764 0.0556641 6.1958 0.166992 6.08447C0.27832 5.97314 0.410156 5.91748 0.5625 5.91748H12.9375C13.0898 5.91748 13.2217 5.97314 13.333 6.08447C13.4443 6.1958 13.5 6.32764 13.5 6.47998C13.5 6.63232 13.4443 6.76416 13.333 6.87549C13.2217 6.98682 13.0898 7.04248 12.9375 7.04248H0.5625C0.410156 7.04248 0.27832 6.98682 0.166992 6.87549C0.0556641 6.76416 0 6.63232 0 6.47998ZM7.4707 1.01318C7.58789 0.907715 7.72266 0.85498 7.875 0.85498C8.02734 0.85498 8.16211 0.907715 8.2793 1.01318L13.3418 6.07568C13.4473 6.19287 13.5 6.32764 13.5 6.47998C13.5 6.63232 13.4473 6.76709 13.3418 6.88428L8.2793 11.9468C8.16211 12.0522 8.02734 12.105 7.875 12.105C7.72266 12.105 7.58789 12.0522 7.4707 11.9468C7.36523 11.8296 7.3125 11.6948 7.3125 11.5425C7.3125 11.3901 7.36523 11.2554 7.4707 11.1382L12.1465 6.47998L7.4707 1.82178C7.36523 1.70459 7.3125 1.56982 7.3125 1.41748C7.3125 1.26514 7.36523 1.13037 7.4707 1.01318Z" fill="black"/>
</svg>
