<svg width="6" height="11" viewBox="0 0 6 11" fill="none" xmlns="http://www.w3.org/2000/svg">
<path d="M0.131836 0.455566C0.229492 0.367676 0.341797 0.32373 0.46875 0.32373C0.595703 0.32373 0.708008 0.367676 0.805664 0.455566L5.49316 5.14307C5.58105 5.24072 5.625 5.35303 5.625 5.47998C5.625 5.60693 5.58105 5.71924 5.49316 5.81689L0.805664 10.5044C0.708008 10.5923 0.595703 10.6362 0.46875 10.6362C0.341797 10.6362 0.229492 10.5923 0.131836 10.5044C0.0439453 10.4067 0 10.2944 0 10.1675C0 10.0405 0.0439453 9.92822 0.131836 9.83057L4.49707 5.47998L0.131836 1.12939C0.0439453 1.03174 0 0.919434 0 0.79248C0 0.665527 0.0439453 0.553223 0.131836 0.455566Z" fill="black"/>
</svg>
