<svg width="9" height="14" viewBox="0 0 9 14" fill="none" xmlns="http://www.w3.org/2000/svg">
<path d="M8.13422 0.320801C8.2514 0.451009 8.31 0.600749 8.31 0.77002C8.31 0.93929 8.2514 1.08903 8.13422 1.21924L2.3139 7.02002L8.13422 12.8208C8.2514 12.951 8.31 13.1007 8.31 13.27C8.31 13.4393 8.2514 13.589 8.13422 13.7192C8.00401 13.8364 7.85427 13.895 7.685 13.895C7.51573 13.895 7.36599 13.8364 7.23578 13.7192L0.985779 7.46924C0.868591 7.33903 0.809998 7.18929 0.809998 7.02002C0.809998 6.85075 0.868591 6.70101 0.985779 6.5708L7.23578 0.320801C7.36599 0.203613 7.51573 0.14502 7.685 0.14502C7.85427 0.14502 8.00401 0.203613 8.13422 0.320801Z" fill="black"/>
</svg>
