<svg width="9" height="14" viewBox="0 0 9 14" fill="none" xmlns="http://www.w3.org/2000/svg">
<path d="M0.985779 0.320801C1.11599 0.203613 1.26573 0.14502 1.435 0.14502C1.60427 0.14502 1.75401 0.203613 1.88422 0.320801L8.13422 6.5708C8.2514 6.70101 8.31 6.85075 8.31 7.02002C8.31 7.18929 8.2514 7.33903 8.13422 7.46924L1.88422 13.7192C1.75401 13.8364 1.60427 13.895 1.435 13.895C1.26573 13.895 1.11599 13.8364 0.985779 13.7192C0.868591 13.589 0.809998 13.4393 0.809998 13.27C0.809998 13.1007 0.868591 12.951 0.985779 12.8208L6.80609 7.02002L0.985779 1.21924C0.868591 1.08903 0.809998 0.93929 0.809998 0.77002C0.809998 0.600749 0.868591 0.451009 0.985779 0.320801Z" fill="black"/>
</svg>
